<svg width="135" height="40" viewBox="0 0 135 40" fill="none" xmlns="http://www.w3.org/2000/svg">
<path fill-rule="evenodd" clip-rule="evenodd" d="M15.6673 0C15.9489 0.00490828 16.2286 0.0328725 16.5062 0.0838926C16.8519 0.266037 17.2062 0.433822 17.5688 0.587248C18.4394 0.832209 19.3156 1.05592 20.1975 1.25839C21.8671 1.79501 23.4331 2.54072 24.8955 3.49553C27.4479 5.11487 29.7317 7.06303 31.7467 9.34004C33.7095 11.8123 34.9773 14.6087 35.5498 17.7293C35.7669 20.5799 35.5432 23.395 34.8787 26.1745C34.6979 26.7598 34.4555 27.3191 34.1516 27.8523C32.773 30.1259 30.974 31.9995 28.7545 33.4732C27.8037 34.0977 26.853 34.7222 25.9022 35.3468C25.8835 35.5518 25.8649 35.7569 25.8462 35.962C25.8811 36.8193 25.9091 37.6768 25.9301 38.5347C25.9569 39.6253 25.1471 37.7469 25.3709 35.4027C23.9165 35.8999 22.453 36.3753 20.9805 36.8289C19.4411 37.3114 17.8751 37.4418 16.2825 37.2204C15.7493 36.9963 15.1993 36.8377 14.6326 36.745C14.5185 36.7966 14.3973 36.8152 14.2691 36.8009C14.2835 37.4726 14.2928 38.1437 14.297 38.8143C14.2735 39.0588 14.2362 39.3012 14.1852 39.5414C14.1446 39.6341 14.0794 39.6621 13.9894 39.6253C13.8107 39.4064 13.7082 39.1547 13.6818 38.8702C13.6492 38.357 13.6586 37.8443 13.7098 37.3322C13.7086 37.0173 13.662 36.7097 13.57 36.4094C12.8099 35.9501 12.0362 35.512 11.2489 35.0951C9.96432 34.2395 8.83642 33.2049 7.86528 31.991C6.94895 30.8324 6.05409 29.6579 5.18072 28.4676C4.17317 26.6933 3.69777 24.7824 3.75454 22.7349C3.76858 20.5768 4.22529 18.5168 5.12479 16.5548C5.80426 15.0828 6.62451 13.7032 7.58563 12.4161C8.0254 11.9576 8.48217 11.5195 8.95588 11.1018C10.3073 10.0301 11.7055 9.02338 13.1505 8.08165C13.6223 7.84575 14.107 7.64066 14.6046 7.46644C14.7777 7.23238 14.9642 7.00867 15.1639 6.7953C15.4386 6.71186 15.7182 6.69318 16.0029 6.73937C16.0494 6.78596 16.0961 6.83261 16.1427 6.87919C16.1986 7.12153 16.2545 7.36393 16.3105 7.60626C16.6289 7.73467 16.9365 7.88378 17.2333 8.05369C17.3395 8.68786 17.0785 9.10733 16.4503 9.31208C15.2749 9.48009 14.1936 9.89021 13.2064 10.5425C11.6445 11.6563 10.181 12.896 8.81606 14.2617C7.89184 15.4761 7.20208 16.8184 6.74671 18.2886C5.173 23.0666 6.1051 27.2798 9.54313 30.9284C9.93463 31.3199 10.3261 31.7114 10.7176 32.1029C10.8095 31.8116 10.8654 31.5134 10.8854 31.208C10.859 29.325 10.8682 27.4421 10.9134 25.5593C10.8828 24.6409 10.8176 23.7273 10.7176 22.8188C10.7947 22.723 10.8879 22.6484 10.9973 22.5951C11.0346 22.2781 11.0346 21.9612 10.9973 21.6443C10.7719 21.3711 10.6321 21.0635 10.5778 20.7215C10.8015 19.4348 11.5099 18.5213 12.7031 17.981C13.5678 17.6477 14.4626 17.4799 15.3876 17.4776C15.6366 17.7909 15.8975 18.0892 16.1706 18.3725C16.3911 18.428 16.6148 18.4653 16.8418 18.4843C16.644 19.2688 16.178 19.8187 15.4436 20.1342C15.115 20.035 14.7795 19.979 14.4369 19.9664C13.9499 20.0134 13.4652 20.0786 12.9827 20.1622C12.5584 20.5862 12.1763 21.043 11.8362 21.5324C11.8029 24.3535 11.6538 27.1686 11.3888 29.9776C11.3261 30.7226 11.3074 31.4683 11.3328 32.2148C13.0778 34.0798 15.231 35.0399 17.7926 35.0951C17.7493 34.9606 17.7213 34.8207 17.7087 34.6756C17.69 33.613 17.6714 32.5503 17.6527 31.4877C17.6423 31.0437 17.5398 30.6242 17.3451 30.2293C16.9034 30.0594 16.6144 30.1992 16.4782 30.6488C16.4687 30.9303 16.4407 31.2099 16.3944 31.4877C16.282 31.0947 16.1609 30.7032 16.0308 30.3132C15.8329 30.1629 15.6185 30.1256 15.3876 30.2013C15.3876 31.1148 15.3876 32.0284 15.3876 32.9418C15.3317 32.9418 15.2758 32.9418 15.2199 32.9418C15.03 32.2119 15.0114 31.4755 15.1639 30.7327C15.138 30.4766 15.0914 30.2249 15.0241 29.9776C14.8443 30.2864 14.7511 30.6219 14.7445 30.9843C14.7611 31.8229 14.7611 32.6618 14.7445 33.5011C14.6845 33.5447 14.6192 33.5354 14.5487 33.4732C14.2219 33.212 14.0728 32.8671 14.1013 32.4385C14.1469 31.6734 14.2029 30.9091 14.2691 30.1454C14.2902 29.6738 14.169 29.245 13.9055 28.8591C13.5257 28.5355 13.2087 28.1626 12.9548 27.7405C12.8433 27.4123 12.8713 27.0954 13.0387 26.7897C13.2593 26.8628 13.4644 26.9653 13.6539 27.0973C14.0181 27.13 14.3723 27.2046 14.7165 27.321C15.2041 27.7154 15.7074 28.0883 16.2266 28.4396C16.6581 28.5393 17.0961 28.5859 17.5409 28.5794C18.5779 28.5496 19.6125 28.4843 20.6449 28.3837C21.7072 28.2346 22.6952 27.8804 23.6091 27.321C24.1545 26.9621 24.6671 26.5613 25.1471 26.1186C25.2727 26.1542 25.3939 26.2008 25.5107 26.2584C25.7152 26.4353 25.9389 26.5844 26.1818 26.7058C26.272 26.7461 26.3559 26.7368 26.4335 26.6778C26.3517 25.9844 26.3051 25.2853 26.2937 24.5805C26.3461 23.4529 26.3554 22.325 26.3216 21.1969C26.2835 20.7248 26.2089 20.2587 26.0979 19.7987C26.054 19.6988 25.9888 19.6149 25.9022 19.547C25.3056 19.2673 24.7091 18.9877 24.1125 18.7081C23.8641 18.5715 23.6497 18.3944 23.4693 18.1767C23.2495 18.4142 23.0445 18.6565 22.8541 18.9038C22.6469 18.7243 22.4325 18.5565 22.2109 18.4004C21.8527 18.4883 21.6384 18.712 21.5677 19.0716C21.5583 19.5202 21.5304 19.9676 21.4838 20.4139C21.4652 20.4045 21.4465 20.3952 21.4279 20.3859C21.2929 20.0273 21.237 19.6545 21.2601 19.2673C21.2666 18.5935 21.3505 17.9317 21.5118 17.2819C21.9466 16.8825 22.4407 16.5749 22.9939 16.3591C23.655 16.1387 24.3075 15.8964 24.9514 15.632C25.0446 15.5947 25.1378 15.5947 25.231 15.632C26.6617 16.5405 27.7337 17.7616 28.4469 19.2953C28.4475 19.4828 28.3543 19.6133 28.1673 19.6868C28.0988 19.6666 28.0335 19.6386 27.9715 19.6029C27.7739 19.3865 27.5595 19.1908 27.3283 19.0157C27.2772 19.062 27.2399 19.1179 27.2165 19.1834C27.1191 19.776 27.0632 20.3725 27.0487 20.9732C27.057 22.7628 27.057 24.5525 27.0487 26.3423C27.0415 26.8545 26.9762 27.3578 26.853 27.8523C26.6396 27.6503 26.4811 27.4079 26.3776 27.1253C25.3863 28.3214 24.1838 29.2442 22.7702 29.8937C22.5212 30.1735 22.4839 30.4811 22.6583 30.8166C22.2646 30.9802 21.8545 31.0734 21.4279 31.0962C20.7898 31.0003 20.1559 30.8791 19.5263 30.7327C19.1541 30.6929 18.7813 30.6649 18.4078 30.6488C18.4072 31.4974 18.3885 32.3456 18.3518 33.1935C18.3469 33.8428 18.4028 34.486 18.5196 35.123C20.7834 35.1443 22.9459 34.6876 25.0073 33.7528C26.7955 32.8589 28.5479 31.9081 30.2646 30.9004C31.3192 29.5466 32.2979 28.139 33.2008 26.6778C34.5722 24.2367 34.9637 21.6454 34.3753 18.9038C33.8536 15.8846 32.5858 13.2374 30.5722 10.962C29.6867 9.92729 28.7266 8.96717 27.6919 8.08165C27.0544 7.66963 26.3832 7.31538 25.6785 7.01901C23.9633 6.29195 22.2482 5.56488 20.5331 4.83781C18.4162 4.07888 16.235 3.65009 13.9894 3.55145C13.3117 3.50914 12.6592 3.35999 12.0319 3.10403C11.6781 2.83382 11.3053 2.59146 10.9134 2.37696C10.6151 2.32103 10.3168 2.2651 10.0185 2.20917C9.68205 2.15121 9.42104 1.98343 9.23552 1.70582C9.53709 1.10701 10.0218 0.752802 10.6897 0.643177C12.1938 0.427325 13.6852 0.501896 15.1639 0.86689C18.293 1.72342 21.3318 2.82334 24.2803 4.16667C24.7277 4.46495 25.1751 4.76324 25.6225 5.06152C25.8657 5.22111 26.1267 5.31433 26.4055 5.34116C25.2784 4.28285 23.9921 3.46257 22.5465 2.88031C21.4075 2.42608 20.2517 2.01594 19.0789 1.64989C17.6227 1.25764 16.1872 0.810212 14.7724 0.307606C14.847 0.233035 14.9216 0.158464 14.9961 0.0838926C15.2304 0.0740391 15.4541 0.0460749 15.6673 0Z" fill="#F44848"/>
<path d="M53.0668 17.8339C53.0242 17.3651 52.8345 17.0008 52.4979 16.7408C52.1655 16.4766 51.6904 16.3445 51.0725 16.3445C50.6634 16.3445 50.3225 16.3978 50.0497 16.5043C49.777 16.6109 49.5725 16.7579 49.4361 16.9454C49.2997 17.1286 49.2294 17.3395 49.2252 17.5782C49.2166 17.7742 49.255 17.9468 49.3402 18.0959C49.4297 18.2451 49.5575 18.3772 49.7237 18.4922C49.8942 18.603 50.0987 18.7011 50.3374 18.7863C50.576 18.8715 50.8445 18.9461 51.1428 19.01L52.2678 19.2657C52.9155 19.4063 53.4865 19.5938 53.9808 19.8282C54.4794 20.0626 54.897 20.3417 55.2337 20.6655C55.5746 20.9894 55.8324 21.3623 56.0071 21.7841C56.1818 22.206 56.2713 22.679 56.2756 23.2032C56.2713 24.0299 56.0625 24.7394 55.6492 25.3317C55.2358 25.9241 54.6413 26.3779 53.8658 26.6932C53.0945 27.0086 52.1634 27.1662 51.0725 27.1662C49.9773 27.1662 49.0227 27.0022 48.2088 26.6741C47.3949 26.3459 46.7621 25.8474 46.3104 25.1783C45.8587 24.5093 45.6264 23.6634 45.6136 22.6407H48.6435C48.669 23.0626 48.782 23.4141 48.9823 23.6954C49.1825 23.9766 49.4574 24.1897 49.8068 24.3346C50.1605 24.4795 50.5696 24.5519 51.0341 24.5519C51.4602 24.5519 51.8225 24.4944 52.1207 24.3793C52.4233 24.2643 52.6556 24.1045 52.8175 23.8999C52.9794 23.6954 53.0625 23.461 53.0668 23.1968C53.0625 22.9496 52.9858 22.7387 52.8367 22.564C52.6875 22.385 52.4574 22.2316 52.1463 22.1037C51.8395 21.9716 51.4475 21.8502 50.9702 21.7394L49.6023 21.4198C48.4688 21.1599 47.576 20.7401 46.924 20.1606C46.272 19.5768 45.9482 18.7884 45.9524 17.7955C45.9482 16.9859 46.1655 16.2763 46.6044 15.667C47.0433 15.0576 47.6506 14.5824 48.4261 14.2415C49.2017 13.9006 50.0859 13.7302 51.0788 13.7302C52.0931 13.7302 52.973 13.9028 53.7188 14.2479C54.4688 14.5888 55.0504 15.0682 55.4638 15.6861C55.8771 16.304 56.0881 17.0199 56.0966 17.8339H53.0668Z" fill="#212121"/>
<path d="M61.7367 27.1854C60.7054 27.1854 59.8191 26.9745 59.0776 26.5526C58.3404 26.1265 57.7715 25.5341 57.3709 24.7756C56.9746 24.0128 56.7765 23.1286 56.7765 22.1229C56.7765 21.113 56.9746 20.2287 57.3709 19.4702C57.7715 18.7074 58.3404 18.1151 59.0776 17.6932C59.8191 17.2671 60.7054 17.054 61.7367 17.054C62.7679 17.054 63.6522 17.2671 64.3894 17.6932C65.1309 18.1151 65.6998 18.7074 66.0961 19.4702C66.4966 20.2287 66.6969 21.113 66.6969 22.1229C66.6969 23.1286 66.4966 24.0128 66.0961 24.7756C65.6998 25.5341 65.1309 26.1265 64.3894 26.5526C63.6522 26.9745 62.7679 27.1854 61.7367 27.1854ZM61.7559 24.8268C62.1309 24.8268 62.4483 24.7117 62.7083 24.4816C62.9682 24.2515 63.1664 23.9319 63.3027 23.5228C63.4434 23.1137 63.5137 22.6407 63.5137 22.1037C63.5137 21.5583 63.4434 21.081 63.3027 20.6719C63.1664 20.2628 62.9682 19.9432 62.7083 19.7131C62.4483 19.483 62.1309 19.368 61.7559 19.368C61.3681 19.368 61.04 19.483 60.7715 19.7131C60.5073 19.9432 60.3049 20.2628 60.1642 20.6719C60.0279 21.081 59.9597 21.5583 59.9597 22.1037C59.9597 22.6407 60.0279 23.1137 60.1642 23.5228C60.3049 23.9319 60.5073 24.2515 60.7715 24.4816C61.04 24.7117 61.3681 24.8268 61.7559 24.8268Z" fill="#212121"/>
<path d="M72.1612 27.1854C71.1257 27.1854 70.2372 26.9724 69.4957 26.5462C68.7585 26.1201 68.1918 25.5278 67.7955 24.7692C67.3991 24.0064 67.201 23.1243 67.201 22.1229C67.201 21.1172 67.3991 20.2351 67.7955 19.4766C68.196 18.7138 68.7649 18.1194 69.5021 17.6932C70.2436 17.2671 71.1278 17.054 72.1548 17.054C73.0625 17.054 73.853 17.2181 74.5263 17.5462C75.2038 17.8743 75.7322 18.3388 76.1115 18.9397C76.495 19.5363 76.6974 20.2373 76.7187 21.0427H73.7976C73.7379 20.5398 73.5675 20.1457 73.2862 19.8601C73.0092 19.5746 72.647 19.4319 72.1996 19.4319C71.8374 19.4319 71.5199 19.5341 71.2472 19.7387C70.9744 19.939 70.7614 20.2373 70.608 20.6336C70.4588 21.0256 70.3842 21.5114 70.3842 22.091C70.3842 22.6705 70.4588 23.1606 70.608 23.5611C70.7614 23.9574 70.9744 24.2579 71.2472 24.4624C71.5199 24.6627 71.8374 24.7628 72.1996 24.7628C72.4893 24.7628 72.745 24.7011 72.9666 24.5775C73.1925 24.4539 73.3778 24.2728 73.5227 24.0341C73.6676 23.7912 73.7592 23.4972 73.7976 23.152H76.7187C76.6889 23.9617 76.4865 24.6691 76.1115 25.2742C75.7408 25.8793 75.2187 26.3502 74.5455 26.6868C73.8764 27.0192 73.0817 27.1854 72.1612 27.1854Z" fill="#212121"/>
<path d="M77.5984 27.0001V17.1819H80.7241V27.0001H77.5984ZM79.1644 16.0377C78.7255 16.0377 78.3484 15.8928 78.033 15.603C77.7177 15.309 77.56 14.9553 77.56 14.542C77.56 14.1329 77.7177 13.7834 78.033 13.4937C78.3484 13.1996 78.7255 13.0526 79.1644 13.0526C79.6076 13.0526 79.9847 13.1996 80.2958 13.4937C80.6111 13.7834 80.7688 14.1329 80.7688 14.542C80.7688 14.9553 80.6111 15.309 80.2958 15.603C79.9847 15.8928 79.6076 16.0377 79.1644 16.0377Z" fill="#212121"/>
<path d="M86.5767 27.1854C85.5454 27.1854 84.6591 26.9745 83.9176 26.5526C83.1804 26.1265 82.6115 25.5341 82.2109 24.7756C81.8146 24.0128 81.6165 23.1286 81.6165 22.1229C81.6165 21.113 81.8146 20.2287 82.2109 19.4702C82.6115 18.7074 83.1804 18.1151 83.9176 17.6932C84.6591 17.2671 85.5454 17.054 86.5767 17.054C87.6079 17.054 88.4922 17.2671 89.2294 17.6932C89.9709 18.1151 90.5398 18.7074 90.9361 19.4702C91.3366 20.2287 91.5369 21.113 91.5369 22.1229C91.5369 23.1286 91.3366 24.0128 90.9361 24.7756C90.5398 25.5341 89.9709 26.1265 89.2294 26.5526C88.4922 26.9745 87.6079 27.1854 86.5767 27.1854ZM86.5959 24.8268C86.9709 24.8268 87.2883 24.7117 87.5483 24.4816C87.8082 24.2515 88.0064 23.9319 88.1427 23.5228C88.2834 23.1137 88.3537 22.6407 88.3537 22.1037C88.3537 21.5583 88.2834 21.081 88.1427 20.6719C88.0064 20.2628 87.8082 19.9432 87.5483 19.7131C87.2883 19.483 86.9709 19.368 86.5959 19.368C86.2081 19.368 85.88 19.483 85.6115 19.7131C85.3473 19.9432 85.1449 20.2628 85.0042 20.6719C84.8679 21.081 84.7997 21.5583 84.7997 22.1037C84.7997 22.6407 84.8679 23.1137 85.0042 23.5228C85.1449 23.9319 85.3473 24.2515 85.6115 24.4816C85.88 24.7117 86.2081 24.8268 86.5959 24.8268Z" fill="#212121"/>
<path d="M92.4181 30.6819V17.1819H95.5119V18.863H95.6078C95.7356 18.5647 95.9167 18.277 96.1511 18.0001C96.3897 17.7231 96.6923 17.4972 97.0588 17.3225C97.4295 17.1435 97.8727 17.054 98.3883 17.054C99.0701 17.054 99.7072 17.233 100.3 17.591C100.896 17.9489 101.378 18.5008 101.744 19.2465C102.111 19.9922 102.294 20.9425 102.294 22.0974C102.294 23.2096 102.117 24.1407 101.763 24.8907C101.414 25.6407 100.941 26.2032 100.344 26.5782C99.7519 26.9532 99.0936 27.1407 98.3691 27.1407C97.8748 27.1407 97.4465 27.0597 97.0843 26.8978C96.7221 26.7359 96.4174 26.5228 96.1703 26.2586C95.9274 25.9944 95.7399 25.711 95.6078 25.4084H95.5438V30.6819H92.4181ZM95.4799 22.091C95.4799 22.6194 95.5502 23.0796 95.6908 23.4716C95.8357 23.8637 96.0424 24.1684 96.3109 24.3857C96.5836 24.5988 96.9096 24.7053 97.2889 24.7053C97.6724 24.7053 97.9984 24.5988 98.2668 24.3857C98.5353 24.1684 98.7377 23.8637 98.8741 23.4716C99.0147 23.0796 99.085 22.6194 99.085 22.091C99.085 21.5626 99.0147 21.1045 98.8741 20.7167C98.7377 20.3289 98.5353 20.0285 98.2668 19.8154C98.0026 19.6023 97.6766 19.4958 97.2889 19.4958C96.9053 19.4958 96.5793 19.6002 96.3109 19.809C96.0424 20.0178 95.8357 20.3161 95.6908 20.7039C95.5502 21.0917 95.4799 21.554 95.4799 22.091Z" fill="#212121"/>
<path d="M105.98 27.1662C105.353 27.1662 104.797 27.0618 104.311 26.853C103.83 26.64 103.448 26.3204 103.167 25.8942C102.89 25.4638 102.752 24.9248 102.752 24.277C102.752 23.7316 102.847 23.2714 103.039 22.8964C103.231 22.5214 103.495 22.2167 103.832 21.9823C104.168 21.7479 104.556 21.5711 104.995 21.4518C105.434 21.3282 105.903 21.2451 106.401 21.2025C106.96 21.1513 107.409 21.0981 107.75 21.0427C108.091 20.983 108.338 20.8999 108.492 20.7934C108.649 20.6826 108.728 20.527 108.728 20.3268V20.2948C108.728 19.9667 108.615 19.7131 108.389 19.5341C108.163 19.3552 107.859 19.2657 107.475 19.2657C107.062 19.2657 106.73 19.3552 106.478 19.5341C106.227 19.7131 106.067 19.9603 105.999 20.2756L103.116 20.1734C103.201 19.5768 103.421 19.0441 103.774 18.5753C104.132 18.1023 104.622 17.7316 105.244 17.4631C105.871 17.1904 106.623 17.054 107.501 17.054C108.127 17.054 108.705 17.1286 109.233 17.2778C109.762 17.4226 110.222 17.6357 110.614 17.917C111.006 18.1939 111.308 18.5349 111.521 18.9397C111.739 19.3445 111.847 19.8069 111.847 20.3268V27.0001H108.907V25.6322H108.83C108.656 25.9645 108.432 26.2458 108.159 26.4759C107.891 26.706 107.573 26.8786 107.207 26.9937C106.845 27.1087 106.436 27.1662 105.98 27.1662ZM106.945 25.1208C107.281 25.1208 107.584 25.0526 107.852 24.9162C108.125 24.7799 108.342 24.5924 108.504 24.3537C108.666 24.1109 108.747 23.8296 108.747 23.51V22.5768C108.658 22.6236 108.549 22.6662 108.421 22.7046C108.298 22.743 108.161 22.7792 108.012 22.8133C107.863 22.8474 107.71 22.8772 107.552 22.9028C107.394 22.9283 107.243 22.9518 107.098 22.9731C106.804 23.0199 106.553 23.0924 106.344 23.1904C106.139 23.2884 105.982 23.4162 105.871 23.5739C105.764 23.7273 105.711 23.9106 105.711 24.1236C105.711 24.4475 105.826 24.6947 106.056 24.8651C106.291 25.0356 106.587 25.1208 106.945 25.1208Z" fill="#212121"/>
<path d="M118.581 17.1819V19.483H112.387V17.1819H118.581ZM113.684 14.8296H116.81V23.9127C116.81 24.1045 116.84 24.26 116.899 24.3793C116.963 24.4944 117.055 24.5775 117.174 24.6286C117.294 24.6755 117.436 24.6989 117.603 24.6989C117.722 24.6989 117.848 24.6883 117.98 24.667C118.116 24.6414 118.218 24.6201 118.287 24.603L118.76 26.8594C118.61 26.902 118.399 26.9553 118.127 27.0192C117.858 27.0832 117.537 27.1236 117.162 27.1407C116.429 27.1748 115.8 27.0895 115.276 26.885C114.756 26.6762 114.358 26.3523 114.081 25.9134C113.808 25.4745 113.676 24.9226 113.684 24.2579V14.8296Z" fill="#212121"/>
<path d="M122.792 21.4006V27.0001H119.666V13.9091H122.69V18.9844H122.798C123.02 18.3793 123.382 17.9063 123.885 17.5654C124.392 17.2245 125.012 17.054 125.745 17.054C126.435 17.054 127.036 17.2074 127.548 17.5143C128.059 17.8168 128.455 18.2451 128.737 18.7991C129.022 19.353 129.163 20.0008 129.159 20.7422V27.0001H126.033V21.3559C126.037 20.8104 125.901 20.3843 125.624 20.0775C125.347 19.7707 124.957 19.6172 124.454 19.6172C124.126 19.6172 123.836 19.6897 123.585 19.8346C123.337 19.9752 123.144 20.1776 123.003 20.4418C122.867 20.706 122.796 21.0256 122.792 21.4006Z" fill="#212121"/>
<path d="M132.147 27.1854C131.687 27.1854 131.293 27.0235 130.965 26.6996C130.641 26.3758 130.481 25.9837 130.486 25.5235C130.481 25.0718 130.641 24.6861 130.965 24.3665C131.293 24.0427 131.687 23.8807 132.147 23.8807C132.582 23.8807 132.966 24.0427 133.298 24.3665C133.635 24.6861 133.805 25.0718 133.809 25.5235C133.805 25.8303 133.724 26.1094 133.567 26.3609C133.413 26.6123 133.211 26.8126 132.959 26.9617C132.712 27.1109 132.442 27.1854 132.147 27.1854Z" fill="#212121"/>
</svg>
